<?xml version="1.0" encoding="utf-8"?>
<!-- Generator: Adobe Illustrator 18.0.0, SVG Export Plug-In . SVG Version: 6.00 Build 0)  -->
<!DOCTYPE svg PUBLIC "-//W3C//DTD SVG 1.1//EN" "http://www.w3.org/Graphics/SVG/1.1/DTD/svg11.dtd">
<svg version="1.1" id="Layer_1" xmlns="http://www.w3.org/2000/svg" xmlns:xlink="http://www.w3.org/1999/xlink" x="0px" y="0px"
	 viewBox="0 0 1400 980" style="enable-background:new 0 0 1400 980;" xml:space="preserve">
<style type="text/css">
	.st0{fill:#95455B;}
	.st1{fill:#C7455B;}
	.st2{fill:#FFD2CA;}
	.st3{fill:#FFA5AC;}
	.st4{fill:#FFFFFF;}
	.st5{fill:#C8E1FF;}
	.st6{fill:#3C7CA4;}
	.st7{fill:#234A81;}
	.st8{fill:#235E8B;}
	.st9{fill:#231F4D;}
	.st10{fill:#BCBEC0;}
	.st11{fill:#D1D3D4;}
	.st12{fill:#FF91C5;}
	.st13{fill:#FFBEE3;}
	.st14{fill:#FFB23B;}
	.st15{fill:#7AD0FF;}
</style>
<path class="st0" d="M1243,870c-11,3-23,3-34,0c-5-1-8-8-9-13c-4-29,9-64-18-80c-13-7-30-1-45,1c-29,3-59,8-88,3c-11-24-9-53,1-78
	c20-52,43-102,53-158c6-34,9-70-4-101c-3-7-17-3-26,0c-96,24-187,47-279,79c-85,30-164,64-243,114c-58,37-86,89-129,137
	c-20,23-45,41-75,36c-5-1-7-9-9-14c-9-17,6-44-11-54c-17-11-41,2-59,14c-66,41-129,105-206,77c-3-1-4-21,2-31c23-35,44-90,11-121
	c-27.9-1.3-51.8,9.1-75,22v277h1400V786.2c-33.4,9.9-64.9,27.1-94,49.8C1287,850,1265,862,1243,870z"/>
<path class="st1" d="M0,0v703c23.2-12.9,47.1-23.3,75-22c33,31,12,86-11,121c-6,10-5,30-2,31c77,28,140-36,206-77c18-12,42-25,59-14
	c17,10,2,37,11,54c2,5,4,13,9,14c30,5,55-13,75-36c43-48,71-100,129-137c79-50,158-84,243-114c92-32,183-55,279-79c9-3,23-7,26,0
	c13,31,10,67,4,101c-10,56-33,106-53,158c-10,25-12,54-1,78c29,5,59,0,88-3c15-2,32-8,45-1c27,16,14,51,18,80c1,5,4,12,9,13
	c11,3,23,3,34,0c22-8,44-20,63-34c29.1-22.7,60.6-39.9,94-49.8V0H0z"/>
<g>
	<path class="st2" d="M688.8,500c29.5-4.5,56.7-17.7,82.9-32.4l-35.5-9.9l-8-69.2H683h-45.2l-8,69.2l-23.6,6.6
		C633.8,479.8,658.5,505.3,688.8,500z"/>
	<path class="st2" d="M736.2,457.7l-0.5-3.9c-6.4,7.5-13.9,13.9-22,18.2c-15,8-33-4-46-15c-11.8-9.3-23.7-17.2-34.9-26l-3.1,26.7
		l-23.6,6.6c27.6,15.6,52.3,41.1,82.6,35.7c29.5-4.5,56.7-17.7,82.9-32.4L736.2,457.7z"/>
	<path class="st3" d="M713.8,472c8.1-4.3,15.6-10.7,22-18.2l-7.5-65.3H683h-45.2l-4.9,42.5c11.2,8.9,23.1,16.7,34.9,26
		C680.8,468,698.8,480,713.8,472z"/>
	<path class="st4" d="M781.9,470.4l-10.2-2.8c-19.4,11-39.4,21-60.5,27.3c12.4,6.8,23.3,16.6,35.6,24.1
		C759.9,504.1,771.9,487.7,781.9,470.4z"/>
	<path class="st4" d="M619.8,523c13.3-8.3,25.1-19.7,38.1-27.4c-17.5-7.4-34-21.4-51.6-31.4l-19.3,5.4c3.8,19.4,12.3,37.2,24.9,53.4
		C612.8,525,616.8,525,619.8,523z"/>
	<path class="st5" d="M749.8,552c3.7,1.9,7.6,2.4,11.6,1.9c7.7-27.6,14.7-55.4,22.8-82.9l-2.3-0.6c-9.9,17.3-22,33.7-35.1,48.6
		c-12.3-7.5-23.2-17.4-35.6-24.1c-7.3,2.2-14.8,4-22.4,5.1c-10.9,1.9-21.1-0.2-30.9-4.4c-13,7.6-24.7,19-38.1,27.4c-3,2-7,2-8,0
		c-12.6-16.2-21.1-34-24.9-53.4l-8.1,2.3c0.2,1.1,0.5,2.1,1,3.1c12.4,26.2,23.2,52.8,33.6,79.5c22.8-13,41.3-31.9,64.4-42.5
		C704.8,500,726.8,540,749.8,552z"/>
	<path class="st4" d="M749.8,552c-23-12-45-52-72-40c-23.1,10.6-41.6,29.5-64.4,42.5c19.1,48.7,37.2,97.7,62.4,145.5c5,10,21,7,26,0
		c29.2-45.9,45.5-95.7,59.6-146.1C757.4,554.4,753.5,553.9,749.8,552z"/>
	<path class="st6" d="M820.8,593c1-12-17-23-28-33c14-6,31-17,33-28c1.7-18.2-13.1-35.7-19.4-54.7l-22.3-6.2
		c-19.4,66.1-32.8,134-64.2,196.7c11.2-3.9,22.2-8.5,32.8-14.7C779.8,638,818.8,623,820.8,593z"/>
	<path class="st6" d="M548.8,524c4,13,18,25,33,27c-10,17-32,30-24,52c2,8,8,15,15,20c31.6,19.3,58.6,46.3,92.4,56
		c-32.7-67.5-53.7-137-85.4-204c-0.5-1-0.8-2-1-3.1l-20.1,5.6C551.2,492.6,543.1,508.6,548.8,524z"/>
	<path class="st7" d="M834.8,554c2.9-11.9-2.7-23.4-10.3-35c1.1,4.3,1.7,8.6,1.3,13c-2,11-19,22-33,28c5.5,5,12.8,10.3,18.5,15.8
		C822.2,570.1,832.6,563.3,834.8,554z"/>
	<path class="st7" d="M546.8,622c17,34,56,63,97,57c4.5-0.6,9-1.5,13.4-2.7C627,665,601.8,640.8,572.8,623c-7-5-13-12-15-20
		c-0.9-2.5-1.4-4.8-1.6-7.1C548,604.1,542.8,613.4,546.8,622z"/>
	<path class="st7" d="M536.8,543c6,12,17.1,20.7,28.7,28.9c5.4-6.9,12-13.5,16.3-20.9c-15-2-29-14-33-27c-2.9-7.7-2.2-15.6,0.1-23.5
		C537.9,513.2,529.5,528.4,536.8,543z"/>
	<path class="st3" d="M478.8,778.5c-19.8-20.4-40.7-39.6-64.7-53.2c-2.2,13.2-4,26.4-5.3,39.2c23.5,6,46.2,15.4,68.2,26.1
		C477.8,786.7,478.5,782.6,478.8,778.5z"/>
	<path class="st2" d="M526.8,829c-0.3-0.3-0.7-0.7-1-1c-19.2-5.2-38.7-8.6-59-6c3.9-10.1,7.9-20.6,10.2-31.3
		c-22-10.7-44.7-20.1-68.2-26.1c-6.8,66.1-0.5,123.8,38.1,137h134.1C566.6,875,548.4,850.7,526.8,829z"/>
	<path class="st8" d="M889.8,706c15-12.6,33.1-24.6,52.4-30.6c-17.1-77.3-40.7-144.3-40.7-144.3v-27.3l-95-26.5
		c4.8,14.5,14.4,28.1,18.1,41.7c7.6,11.6,13.2,23.1,10.3,35c-2.2,9.3-12.6,16.1-23.5,21.8c5.7,5.5,10,11.2,9.5,17.2
		c-0.3,4.8-1.6,9.3-3.6,13.4c4.4,6.8,7.6,14.1,7.6,22.6c-37.4,22.4-72.1,78-119.7,65.7c-1.1,1.8-2.2,3.6-3.3,5.3c-5,7-21,10-26,0
		c-3.7-7-7.2-14-10.6-21c-2.7-0.8-5.4-1.7-8-2.7c-4.4,1.1-8.8,2-13.4,2.7c-41,6-80-23-97-57c-4-8.6,1.2-17.9,9.4-26.1
		c-0.8-9.1,3.6-16.7,9.3-24c-11.5-8.2-22.6-16.9-28.7-28.9c-7.3-14.6,1.2-29.8,12.1-42.5c2.3-7.8,6.1-15.5,9.9-23l-94.2,26.3v27.3
		c0,0-25.3,72-42.6,152.8c85.5,60.6,158.9,126.5,206.9,217.7h23.4H683h43.5C766.3,825.5,823.2,762.2,889.8,706z"/>
	<path class="st4" d="M889.8,706c-66.6,56.2-123.4,119.5-163.2,195.6h68.2c24.6-35.4,42.9-73.9,70.1-107.6
		c23.9-30.2,52.1-57.9,85.9-76c-2.5-14.3-5.4-28.6-8.5-42.6C922.9,681.4,904.8,693.4,889.8,706z"/>
	<path class="st4" d="M422,683.9c-2.9,13.7-5.6,27.6-7.9,41.4c43.7,24.7,76.9,67.9,112.7,103.7c21.7,21.7,39.9,46,54.2,72.6h48
		C580.9,810.4,507.5,744.5,422,683.9z"/>
	<path class="st3" d="M950.6,718c-26.5,14.2-49.6,34.4-69.8,57c1.6,4-0.2,15.4,4,13.1l7,14.5c21.9-7.7,44.4-12.5,67.3-15.2
		C957.8,765.1,954.8,741.6,950.6,718z"/>
	<path class="st2" d="M891.7,802.5l6,12.5c-15.6-1-31.2-2.3-46.8-2.5c-20.1,28.9-36.1,60-56.3,89.1h124.4
		c34.1-11.7,43-58.1,39.9-114.4C936.2,790,913.6,794.7,891.7,802.5z"/>
	<path class="st7" d="M817.1,606.4c-10.6,21.4-41.7,34-64.4,46.6c-10.5,6.2-21.5,10.8-32.8,14.7c-4.6,9.1-9.5,18.1-14.9,26.9
		c47.6,12.3,82.3-43.2,119.7-65.7C824.8,620.5,821.6,613.2,817.1,606.4z"/>
	<path class="st9" d="M682.5,142.9c0,0-178.1-27.9-128.7,189.1c0,0-36,96.9,32.8,126.9l4.6-46c0,0,7.8,11,24.3,16
		c0,0,21.4-51,90.4-40c31.5,9.2,33,40,33,40s17.6,0,25.3-10l-3.9,41c67.1-11.9,65.2-96.5,49.3-140.7
		C785.4,252,854.8,150,682.5,142.9z"/>
	<path class="st2" d="M593.6,238.1v93.6c0,12.7,3.1,25.2,9,36.5l9.7,18.6c13.6,25.9,40.4,42.2,69.7,42.2h0c31.2,0,59.5-18.5,72-47.1
		l11.8-26.8c4.4-10,6.6-20.7,6.6-31.6v-91.5v0c0-38.1-30.9-69-69-69h-40.8c-38.1,0-69,30.9-69,69V238.1z"/>
	<path class="st9" d="M721.4,215.9c0,0-83.5,15-135.5,88.8c0,0-28.1-105.5,0-131.7c35-32.7,163.8-14.7,162.4,0
		c0,0,52.4,57.2,32.7,147.9c0,0-42.2-18-43.3-93.8c0,0-28.4,55.9-101.5,54.7L721.4,215.9z"/>
	<path class="st10" d="M876.3,914.6H489.7c-7.5,0-13.5-6-13.5-13.5l0,0c0-7.5,6-13.5,13.5-13.5h386.6c7.5,0,13.5,6,13.5,13.5l0,0
		C889.8,908.5,883.8,914.6,876.3,914.6z"/>
	<path class="st11" d="M884.1,622.1H481.9c-6.8,0-12.2,5.7-11.8,12.5l14.2,253h397.5l14.2-253C896.3,627.8,890.9,622.1,884.1,622.1z
		"/>
	<path class="st2" d="M786.7,328.3l2,6.7c0,0-9,27.5-19.5,27.5l9.2-34.1C779.6,324.2,785.5,324.1,786.7,328.3z"/>
	<path class="st2" d="M576.3,328.3l-2,6.7c0,0,9,27.5,19.5,27.5l-9.2-34.1C583.4,324.2,577.6,324.1,576.3,328.3z"/>
	<path class="st9" d="M716.8,286.2c0,0,10.2-10.9,25.8-6.6"/>
	<path class="st9" d="M644.8,286.2c0,0-10.2-10.9-25.8-6.6"/>
	<g>
		<polygon class="st9" points="754.3,312 613.9,312 586,301.7 587.8,297 614.8,307 753.3,307 778.1,297 780,301.7 		"/>
	</g>
	<g>
		<path class="st9" d="M696.8,330.7L696.8,330.7c-2.8,0-5-2.2-5-5v-6.3c0-2.9-2.3-5.2-5.2-5.2h-3.9c-2.9,0-5.2,2.3-5.2,5.2v6.3
			c0,2.8-2.2,5-5,5l0,0v-21.5h24.2V330.7z"/>
	</g>
	<path class="st3" d="M689.5,369.9c0,2.8-2.3,5.1-5.1,5.1s-5.1-2.3-5.1-5.1s2.3-8.3,5.1-8.3S689.5,367.1,689.5,369.9z"/>
	<path class="st4" d="M753.6,348.9c-16.4,13.4-35.7,10.6-51.8-0.1c-3.6-2.4-5.9-7.1-5.9-12.2v-19.2c0-7.6,5-13.9,11.2-13.9h40.2
		c6.2,0,11.2,6.2,11.2,13.9v20.2C758.4,342,756.6,346.3,753.6,348.9z"/>
	<ellipse class="st9" cx="722" cy="336.2" rx="4.5" ry="7.6"/>
	<ellipse class="st12" cx="738.5" cy="361.1" rx="20.9" ry="7.2"/>
	<path class="st4" d="M668.2,348.9c-16.4,13.4-35.7,10.6-51.8-0.1c-3.6-2.4-5.9-7.1-5.9-12.2v-19.2c0-7.6,5-13.9,11.2-13.9h40.2
		c6.2,0,11.2,6.2,11.2,13.9v20.2C673.1,342,671.3,346.3,668.2,348.9z"/>
	<ellipse class="st9" cx="646.3" cy="336.2" rx="4.5" ry="7.6"/>
	<ellipse class="st12" cx="625.2" cy="361.1" rx="20.9" ry="7.2"/>
	<rect x="606" y="303.4" class="st9" width="154.7" height="6.1"/>
	<circle class="st4" cx="679.4" cy="760.2" r="25.7"/>
	<circle class="st13" cx="687.4" cy="544.6" r="8.4"/>
	<circle class="st13" cx="687.4" cy="599.7" r="8.4"/>
</g>
<rect x="126.8" y="914.6" class="st14" width="1110.1" height="65.4"/>
<path class="st10" d="M398.8,835.1L398.8,835.1c-24.9,0-45,20.1-45,45v34.5h90v-34.5C443.8,855.2,423.7,835.1,398.8,835.1z"/>
<path class="st15" d="M1200.6,734.5H941.4c-11.8,0-21.4-9.6-21.4-21.4V357.7c0-11.8,9.6-21.4,21.4-21.4h259.3
	c11.8,0,21.4,9.6,21.4,21.4v355.4C1222.1,724.9,1212.5,734.5,1200.6,734.5z"/>
<path class="st15" d="M435.5,511.2H176.3c-11.8,0-21.4-9.6-21.4-21.4V134.3c0-11.8,9.6-21.4,21.4-21.4h259.3
	c11.8,0,21.4,9.6,21.4,21.4v355.4C457,501.5,447.4,511.2,435.5,511.2z"/>
<path class="st15" d="M486.4,651.1H221.2c-10.2,0-18.5-8.3-18.5-18.5v-65.8c0-10.2,8.3-18.5,18.5-18.5h265.2
	c10.2,0,18.5,8.3,18.5,18.5v65.8C504.9,642.8,496.6,651.1,486.4,651.1z"/>
<g>
	<path class="st15" d="M287.6,589.6H169.1c-26.1,0-47.4-21.2-47.4-47.4V339.3c0-26.1,21.2-47.4,47.4-47.4c2.8,0,5,2.2,5,5
		s-2.2,5-5,5c-20.6,0-37.4,16.8-37.4,37.4v202.9c0,20.6,16.8,37.4,37.4,37.4h118.5c2.8,0,5,2.2,5,5S290.4,589.6,287.6,589.6z"/>
</g>
<g>
	<path class="st15" d="M565.4,783.4c-1.3,0-2.6-0.5-3.5-1.5l-21.4-21.4c-13.6-13.6-31.6-21.1-50.8-21.1h-43.8
		c-43.7,0-79.2-35.5-79.2-79.2v-38.2c0-2.8,2.2-5,5-5s5,2.2,5,5v38.2c0,38.2,31.1,69.2,69.2,69.2h43.8c21.9,0,42.4,8.5,57.9,24
		l21.4,21.4c2,2,2,5.1,0,7.1C568,782.9,566.7,783.4,565.4,783.4z"/>
</g>
<g>
	<path class="st15" d="M797.9,646.2c-1.3,0-2.6-0.5-3.5-1.5c-2-2-2-5.1,0-7.1l56-56c16-16,37.2-24.7,59.7-24.7H973c2.8,0,5,2.2,5,5
		s-2.2,5-5,5h-62.9c-19.9,0-38.6,7.7-52.7,21.8l-56,56C800.5,645.8,799.2,646.2,797.9,646.2z"/>
</g>
<rect x="952.8" y="375.1" class="st4" width="236.4" height="36.9"/>
<rect x="966.8" y="444.6" class="st4" width="208.4" height="18.2"/>
<rect x="966.8" y="480.9" class="st4" width="208.4" height="18.2"/>
<rect x="966.8" y="517.2" class="st4" width="208.4" height="18.2"/>
<rect x="1087.8" y="553.5" class="st4" width="87.4" height="18.2"/>
<path class="st4" d="M1052.1,678.5h-75.2c-3.4,0-6.1-2.7-6.1-6.1v0c0-3.4,2.7-6.1,6.1-6.1h75.2c3.4,0,6.1,2.7,6.1,6.1v0
	C1058.2,675.8,1055.4,678.5,1052.1,678.5z"/>
<path class="st4" d="M1047.8,647.1h-66.7c-7.9,0-14.3-6.4-14.3-14.3v-64.9c0-7.9,6.4-14.3,14.3-14.3h66.7c7.9,0,14.3,6.4,14.3,14.3
	v64.9C1062.2,640.7,1055.7,647.1,1047.8,647.1z"/>
<circle class="st4" cx="351.7" cy="246.5" r="85.4"/>
<rect x="189.7" y="354" class="st4" width="96" height="14.4"/>
<path class="st4" d="M185.1,198.8h-78.9c-12.2,0-22.1-9.9-22.1-22.1v0c0-12.2,9.9-22.1,22.1-22.1h78.9c12.2,0,22.1,9.9,22.1,22.1v0
	C207.2,188.9,197.3,198.8,185.1,198.8z"/>
<rect x="189.7" y="381.3" class="st4" width="238" height="10.4"/>
<rect x="189.7" y="404.6" class="st4" width="238" height="10.4"/>
<rect x="189.7" y="427.9" class="st4" width="151.3" height="10.4"/>
<g>
	<polygon class="st15" points="353.9,245.9 290.8,167.8 293.9,165.3 354.7,240.5 431.3,189.8 433.5,193.2 	"/>
</g>
<g>
	<polygon class="st15" points="357.4,345.1 352.4,244.9 260.6,228 261.4,224 356.2,241.5 361.4,344.9 	"/>
</g>
<g>
	
		<rect x="307.8" y="219.6" transform="matrix(0.5605 0.8281 -0.8281 0.5605 362.48 -136.4738)" class="st15" width="4" height="107.5"/>
</g>
<g>
	<polygon class="st4" points="472.1,624.1 237.7,624.1 237.7,620.1 468.1,620.1 468.1,575.5 472.1,575.5 	"/>
</g>
<g>
	<polygon class="st4" points="296,604 248.4,577.2 250.3,573.7 296,599.4 321.3,585.1 337.7,593.7 380,573.3 407.9,586 422,578.4 
		449.3,594.2 447.3,597.6 422,583 408.1,590.5 380,577.7 337.6,598.1 321.4,589.6 	"/>
</g>
</svg>
